<?xml version="1.0" encoding="iso-8859-1"?>
<!-- Generator: Adobe Illustrator 21.0.0, SVG Export Plug-In . SVG Version: 6.00 Build 0)  -->
<svg version="1.1" id="&#x56FE;&#x5C42;_1" xmlns="http://www.w3.org/2000/svg" xmlns:xlink="http://www.w3.org/1999/xlink" x="0px"
	 y="0px" viewBox="0 0 364.482 166.492" style="enable-background:new 0 0 364.482 166.492;" xml:space="preserve">
<g id="XMLID_27_">
	<g id="XMLID_35_">
		<path id="XMLID_37_" style="fill:#F08300;" d="M38.467,66.94L38.467,66.94c0,3.875,3.141,7.016,7.016,7.016h40.341
			c2.906,0,5.262,2.356,5.262,5.262v0c0,2.906-2.356,5.262-5.262,5.262h-12.94c-3.875,0-7.016,3.141-7.016,7.016v0
			c0,3.875,3.141,7.016,7.016,7.016h12.94c10.655,0,19.293-8.638,19.293-19.293v0c0-10.655-8.638-19.293-19.293-19.293H45.483
			C41.608,59.925,38.467,63.066,38.467,66.94z"/>
		<path id="XMLID_36_" style="fill:#F08300;" d="M38.467,116.051L38.467,116.051c0-3.875,3.141-7.016,7.016-7.016h40.341
			c2.906,0,5.262-2.356,5.262-5.262v0c0-2.906-2.356-5.262-5.262-5.262h-12.94c-3.875,0-7.016-3.141-7.016-7.016v0
			c0-3.875,3.141-7.016,7.016-7.016h12.94c10.655,0,19.293,8.638,19.293,19.293v0c0,10.655-8.638,19.293-19.293,19.293H45.483
			C41.608,123.066,38.467,119.925,38.467,116.051z"/>
	</g>
	<path id="XMLID_34_" style="fill:#F08300;" d="M319.097,66.94L319.097,66.94c0-3.875-3.141-7.016-7.016-7.016h-24.555
		c-17.436,0-31.571,14.135-31.571,31.571v0c0,17.436,14.135,31.571,31.571,31.571h24.555c3.875,0,7.016-3.141,7.016-7.016v0
		c0-3.875-3.141-7.016-7.016-7.016h-24.555c-9.687,0-17.539-7.853-17.539-17.539v0c0-9.687,7.853-17.539,17.539-17.539h24.555
		C315.956,73.956,319.097,70.815,319.097,66.94z"/>
	<g id="XMLID_29_">
		<g id="XMLID_31_">
			<path id="XMLID_33_" style="fill:#F08300;" d="M213.669,104.172l-7.38-7.441c-0.679-0.685-1.781-0.685-2.46,0l-15.98,16.113
				c-4.383,4.42-1.279,11.977,4.92,11.977h0c1.845,0,3.615-0.739,4.92-2.055l15.98-16.113
				C214.349,105.967,214.349,104.857,213.669,104.172z"/>
			<path id="XMLID_32_" style="fill:#F08300;" d="M224.575,78.819l7.38,7.441c0.679,0.685,1.781,0.685,2.46,0l15.98-16.113
				c4.383-4.42,1.279-11.977-4.92-11.977h0c-1.845,0-3.615,0.739-4.92,2.055l-15.98,16.113
				C223.896,77.023,223.896,78.134,224.575,78.819z"/>
		</g>
		<path id="XMLID_30_" style="fill:#F08300;" d="M250.419,112.802L200.82,63.203c-3.213-3.213-7.572-5.019-12.116-5.019h-6.57h0
			c-7.749,0-14.031,6.282-14.031,14.031v0v19.28c0,10.655-8.638,19.293-19.293,19.293h0c-10.655,0-19.293-8.638-19.293-19.293
			l0-25.994c0-3.664-2.679-6.937-6.327-7.284c-4.184-0.399-7.705,2.881-7.705,6.983v26.295c0,18.405,14.92,33.325,33.325,33.325h0
			c18.405,0,33.325-14.92,33.325-33.325V75.724c0-1.937,1.571-3.508,3.508-3.508h1.791c1.637,0,3.207,0.65,4.365,1.808l48.7,48.701
			c1.316,1.316,3.1,2.055,4.961,2.055h0C251.709,124.779,254.839,117.222,250.419,112.802z"/>
	</g>
	<path id="XMLID_28_" style="fill:#F08300;" d="M45.483,84.48L45.483,84.48c-3.875,0-7.016,3.141-7.016,7.016v24.555
		c0,3.875,3.141,7.016,7.016,7.016h0c3.875,0,7.016-3.141,7.016-7.016V91.495C52.498,87.621,49.357,84.48,45.483,84.48z"/>
</g>
</svg>
